PathFileType	4	(X/Y/Z)	c:/Users/goper/Files/vsCode/490R/osim_files/A06/A06_SSWS_02.trc
DataRate	CameraRate	NumFrames	NumMarkers	Units                	OrigDataRate	OrigDataStartFrame	OrigNumFrames
120.00	120.00	5	36	mm	120.0	979	1118
                Frame#	Time	LPSIS			LASIS			LTH1			LTH2			LTH3			LTH4			LLFE			LMFE			LSH1			LSH2			LSH3			LSH4			LLMAL			LMMAL			LCAL			LMTP5			LTOE			LMTP1			RPSIS			RASIS			RTH1			RTH2			RTH3			RTH4			RLFE			RMFE			RSH1			RSH2			RSH3			RSH4			RLMAL			RMMAL			RCAL			RMTP1			RTOE			RMTP5		
		X1	Y1	Z1	X2	Y2	Z2	X3	Y3	Z3	X4	Y4	Z4	X5	Y5	Z5	X6	Y6	Z6	X7	Y7	Z7	X8	Y8	Z8	X9	Y9	Z9	X10	Y10	Z10	X11	Y11	Z11	X12	Y12	Z12	X13	Y13	Z13	X14	Y14	Z14	X15	Y15	Z15	X16	Y16	Z16	X17	Y17	Z17	X18	Y18	Z18	X19	Y19	Z19	X20	Y20	Z20	X21	Y21	Z21	X22	Y22	Z22	X23	Y23	Z23	X24	Y24	Z24	X25	Y25	Z25	X26	Y26	Z26	X27	Y27	Z27	X28	Y28	Z28	X29	Y29	Z29	X30	Y30	Z30	X31	Y31	Z31	X32	Y32	Z32	X33	Y33	Z33	X34	Y34	Z34	X35	Y35	Z35	X36	Y36	Z36

979	8.15000	0.00000	0.00000	0.00000	-4595.15088	952.83466	334.25296	-4486.65479	597.44397	365.39856	0.00000	0.00000	0.00000	-4550.95117	596.49359	356.82986	-4541.35400	550.80463	350.25647	-4507.27100	478.17639	340.55621	0.00000	0.00000	0.00000	-4438.68945	390.27011	351.07507	-4440.46875	343.79498	355.76196	-4499.61133	384.44742	346.56546	-4494.38379	343.02603	349.27002	0.00000	0.00000	0.00000	0.00000	0.00000	0.00000	-4361.27100	87.28591	252.29320	-4535.33203	48.33384	325.47525	0.00000	0.00000	0.00000	-4555.49658	65.59885	233.15536	0.00000	0.00000	0.00000	-4558.94629	1006.64038	84.19544	-4560.95215	612.52533	42.88951	0.00000	0.00000	0.00000	-4617.70654	633.67383	53.89383	-4628.97217	590.11285	50.90704	0.00000	0.00000	0.00000	-4636.09229	471.49442	160.30846	0.00000	0.00000	0.00000	0.00000	0.00000	0.00000	-4639.40625	313.78195	95.66821	-4636.22217	264.97836	90.67795	0.00000	0.00000	0.00000	0.00000	0.00000	0.00000	-4348.48926	-2.18092	217.42126	-4540.59619	29.25908	325.32651	0.00000	0.00000	0.00000	-4543.51758	27.34189	230.09114
980	8.15833	0.00000	0.00000	0.00000	-4602.15039	952.32544	334.42148	-4490.82227	597.51190	365.31766	0.00000	0.00000	0.00000	-4555.07666	595.92767	356.70230	-4545.20752	550.19208	350.09918	-4510.09863	477.89636	340.41281	0.00000	0.00000	0.00000	-4440.76660	390.57266	350.81305	-4442.21240	344.12125	355.58911	-4501.69922	384.29724	346.46115	-4496.11768	342.91309	349.18326	0.00000	0.00000	0.00000	-4348.66846	-2.12883	217.32864	-4361.41504	87.44007	252.25783	-4535.49658	48.78468	324.40817	0.00000	0.00000	0.00000	0.00000	0.00000	0.00000	0.00000	0.00000	0.00000	-4565.95703	1006.09033	84.36081	-4568.37256	611.73035	42.89655	-4589.94678	573.94965	42.21280	-4625.05908	632.91486	53.86598	-4636.36035	589.33337	50.78795	0.00000	0.00000	0.00000	-4643.63965	470.43640	159.94443	0.00000	0.00000	0.00000	0.00000	0.00000	0.00000	-4655.70117	313.42673	95.55385	-4643.89990	267.61691	90.20044	0.00000	0.00000	0.00000	-4511.06689	127.63200	120.10419	0.00000	0.00000	0.00000	0.00000	0.00000	0.00000	-4748.75293	563.29480	84.87874	0.00000	0.00000	0.00000
981	8.16667	0.00000	0.00000	0.00000	-4609.22363	951.82129	334.67917	-4495.17871	597.45679	365.23770	-4499.92041	558.93335	358.80264	-4559.39062	595.35236	356.54633	-4549.24658	549.52173	349.92200	-4513.14062	477.60773	340.28259	0.00000	0.00000	0.00000	-4442.95312	390.82086	350.56735	-4444.05273	344.44336	355.41132	-4503.88184	384.10428	346.37283	-4497.92773	342.73721	349.10153	0.00000	0.00000	0.00000	-4348.88477	-2.05396	217.20424	-4361.49609	87.57536	252.20378	-4536.30615	48.47559	324.43146	0.00000	0.00000	0.00000	0.00000	0.00000	0.00000	0.00000	0.00000	0.00000	-4573.06934	1005.38019	84.51924	-4575.44336	610.64484	42.93282	-4597.10645	572.92157	42.14938	-4632.22900	631.80060	53.89440	-4643.46826	588.23553	50.71581	0.00000	0.00000	0.00000	-4650.85449	469.11176	159.60814	0.00000	0.00000	0.00000	0.00000	0.00000	0.00000	-4671.67432	313.29440	95.41426	-4648.68799	270.10226	84.76443	0.00000	0.00000	0.00000	0.00000	0.00000	0.00000	-4537.61621	119.79045	120.36051	-4540.55420	28.79802	325.41180	0.00000	0.00000	0.00000	-4450.84863	70.85824	321.53769
982	8.17500	0.00000	0.00000	0.00000	-4616.34473	951.22516	334.94919	-4499.72510	597.38538	365.12335	-4503.85547	558.51904	358.58755	-4563.93066	594.80743	356.36130	-4553.41748	548.84137	349.70380	-4516.27393	477.27335	340.16367	0.00000	0.00000	0.00000	-4445.28564	391.14182	350.35452	-4445.98779	344.71014	355.25354	-4506.11182	383.82275	346.26553	-4499.81006	342.53308	349.01544	0.00000	0.00000	0.00000	-4349.06836	-1.98693	217.09341	-4361.62842	87.76694	252.15268	0.00000	0.00000	0.00000	-4762.65283	560.95905	84.53969	0.00000	0.00000	0.00000	0.00000	0.00000	0.00000	-4580.21094	1004.49292	84.65935	-4582.55957	609.45502	43.01461	0.00000	0.00000	0.00000	-4639.30957	630.52985	53.96620	-4650.50732	586.96790	50.67697	0.00000	0.00000	0.00000	-4657.73828	467.51376	159.31119	0.00000	0.00000	0.00000	0.00000	0.00000	0.00000	-4687.31494	313.39999	95.29127	0.00000	0.00000	0.00000	-4559.99121	43.09708	60.35514	-4564.14014	112.79138	120.40249	0.00000	0.00000	0.00000	0.00000	0.00000	0.00000	-4477.08887	428.71396	228.01672	0.00000	0.00000	0.00000
983	8.18333	0.00000	0.00000	0.00000	-4623.46729	950.52478	335.24826	-4504.45508	597.18121	365.00803	-4508.15869	558.33856	358.52216	-4566.70605	589.41235	352.82635	-4557.71582	548.06189	349.46552	-4519.60742	476.93661	340.06738	0.00000	0.00000	0.00000	-4447.67725	391.29755	350.12149	-4448.13770	344.97809	355.13956	-4508.55908	383.55869	346.16281	-4501.89111	342.28082	348.91330	0.00000	0.00000	0.00000	-4349.27393	-1.91934	216.96735	-4361.75391	87.92382	252.11427	0.00000	0.00000	0.00000	-4769.50879	559.60614	84.47905	0.00000	0.00000	0.00000	0.00000	0.00000	0.00000	-4587.51562	1003.44287	84.77986	-4589.56299	608.04138	43.09190	0.00000	0.00000	0.00000	-4646.31201	629.03644	54.10373	-4657.43555	585.44568	50.72253	0.00000	0.00000	0.00000	-4664.42725	465.68658	159.06540	0.00000	0.00000	0.00000	0.00000	0.00000	0.00000	-4702.62158	313.76520	95.19283	-4698.00879	266.59552	90.34867	0.00000	0.00000	0.00000	0.00000	0.00000	0.00000	0.00000	0.00000	0.00000	-4590.61572	106.78310	120.36435	0.00000	0.00000	0.00000	-4586.03174	39.32514	59.87214
